<svg xmlns="http://www.w3.org/2000/svg" width="21.672" height="26" viewBox="0 0 21.672 26">
  <g id="Group_14116" data-name="Group 14116" transform="translate(-4711.952 -1657.503)">
    <path id="Path_7391" data-name="Path 7391" d="M4722.334,1683.5c-.17-.042-.342-.076-.51-.127a3.757,3.757,0,0,1-2.746-2.905c-.015-.066-.033-.131-.055-.218h-.274c-1.727,0-3.453.007-5.18,0a1.531,1.531,0,0,1-1.442-.912,1.554,1.554,0,0,1,.155-1.677,2.191,2.191,0,0,1,.333-.346,7.524,7.524,0,0,0,2.594-5.789c.008-1.143-.012-2.286.01-3.428a7.546,7.546,0,0,1,5.083-6.915.39.39,0,0,0,.323-.461,9.276,9.276,0,0,1,.026-1.318,2.153,2.153,0,0,1,4.275,0,13.575,13.575,0,0,1,.03,1.445.256.256,0,0,0,.2.29,7.489,7.489,0,0,1,5.122,6.05,8.075,8.075,0,0,1,.086,1.315c.021,1.244-.027,2.491.049,3.731a7.228,7.228,0,0,0,2.379,4.926c.092.087.19.168.282.255a1.625,1.625,0,0,1-1.117,2.838q-2.565,0-5.129,0h-.273c-.031.126-.054.248-.088.366a3.755,3.755,0,0,1-3.084,2.836,1.026,1.026,0,0,0-.139.048Zm.469-4.329v-.013q1.624,0,3.248,0,2.906,0,5.812.014a.593.593,0,0,0,.638-.356c.1-.244.027-.447-.241-.686a8.577,8.577,0,0,1-2.969-6.688c0-1.007.005-2.014,0-3.021a7.211,7.211,0,0,0-.065-1.012,6.5,6.5,0,0,0-12.928.781c-.016,1.227.018,2.454-.014,3.68a8.3,8.3,0,0,1-1.828,5.06,16.506,16.506,0,0,1-1.187,1.248.562.562,0,0,0-.185.636.552.552,0,0,0,.559.356c.076,0,.152,0,.229,0Zm-2.647,1.088a2.7,2.7,0,0,0,2.7,2.158,2.671,2.671,0,0,0,2.563-2.158Zm3.69-19.48a.068.068,0,0,0,.018-.04c0-.38.015-.76,0-1.14a1.053,1.053,0,0,0-.936-1,1,1,0,0,0-1.14.714,10.056,10.056,0,0,0-.1,1.471Z" transform="translate(0 0)"/>
  </g>
</svg>
