<svg xmlns="http://www.w3.org/2000/svg" width="23.453" height="23.455" viewBox="0 0 23.453 23.455">
  <g id="Group_14068" data-name="Group 14068" transform="translate(0.197 0.2)">
    <path id="Path_7247" data-name="Path 7247" d="M1440.631,4007.973h1.933c.347,0,.4-.059.4-.416q0-2.81,0-5.62v-.562c0-.448-.037-.484-.489-.484h-22.135c-.051,0-.1,0-.142,0a.265.265,0,0,0-.286.273c-.005,2.206-.005,4.4,0,6.533,0,.082,0,.271.318.273.668,0,1.349,0,2.006,0h1.463v2.237q0,5.8,0,11.6c0,.168,0,.3.015.422a1.851,1.851,0,0,0,1.534,1.678,1.765,1.765,0,0,0,.314.034h1.971c3.2,0,6.51,0,9.766,0a1.792,1.792,0,0,0,1.663-1.021,2.139,2.139,0,0,0,.212-1.052q0-5.171,0-10.342v-3.553Zm-1.988,1.2q0,6.358,0,12.718a1.372,1.372,0,0,1-1.522,1.519h-11.382a1.361,1.361,0,0,1-1.5-1.489q0-6.256,0-12.512v-4.758h14.405Zm.535-4.6c0-.411-.056-.468-.457-.468h-14.577c-.378,0-.44.061-.441.434q0,.8,0,1.594v1.287h-3.24v-5.985h21.958v5.986h-3.214l-.015-.32c0-.03,0-.06-.005-.088,0-.066-.007-.133-.007-.2q0-.588,0-1.177Q1439.179,4005.106,1439.178,4004.576Z" transform="translate(-1419.913 -4000.89)" fill="#5c1f5a" stroke="#5c1f5a" stroke-width="0.4"/>
    <path id="Path_7248" data-name="Path 7248" d="M1542.862,4146.4a.264.264,0,0,0,.426,0c.989-.977,2.291-2.269,3.595-3.6a.55.55,0,0,0,.091-.3c0-.086-.061-.154-.188-.2-.086-.032-.19-.053-.344.1l-.121.121c-.618.62-2.946,2.965-2.946,2.965v-2.83q0-3.871,0-7.742c0-.026,0-.053,0-.079a1.481,1.481,0,0,0,0-.185.295.295,0,0,0-.588,0,1.507,1.507,0,0,0,0,.184c0,.027,0,.054,0,.08q0,3.872,0,7.743v2.829s-2.567-2.589-3.068-3.085a.391.391,0,0,0-.258-.128.281.281,0,0,0-.2.089.291.291,0,0,0-.1.208.327.327,0,0,0,.106.232C1540.527,4144.081,1541.7,4145.258,1542.862,4146.4Z" transform="translate(-1531.547 -4127.023)" fill="#5c1f5a" stroke="#5c1f5a" stroke-width="0.4"/>
  </g>
</svg>
